HIERARCHY
ROOT Hips
{
	OFFSET 0.000000 97.167313 0.000000
	CHANNELS 6 Xposition Yposition Zposition Xrotation Yrotation Zrotation
	JOINT Spine
	{
		OFFSET 0.000000 13.784798 0.064400
		CHANNELS 3 Xrotation Yrotation Zrotation
		JOINT Spine1
		{
			OFFSET 0.000000 12.037903 0.404700
			CHANNELS 3 Xrotation Yrotation Zrotation
			JOINT Spine2
			{
				OFFSET 0.000000 17.795601 0.420200
				CHANNELS 3 Xrotation Yrotation Zrotation
				JOINT Neck
				{
					OFFSET 0.000000 39.131302 11.954600
					CHANNELS 3 Xrotation Yrotation Zrotation
					JOINT Head
					{
						OFFSET 0.000000 14.456192 15.627699
						CHANNELS 3 Xrotation Yrotation Zrotation
						JOINT HeadTop_End
						{
							OFFSET 0.000000 15.703506 7.603401
							CHANNELS 3 Xrotation Yrotation Zrotation
							End Site
							{
								OFFSET 0.000000 17.447403 0.000000
							}
						}
					}
				}
				JOINT LeftShoulder
				{
					OFFSET 17.399500 24.608795 1.168800
					CHANNELS 3 Xrotation Yrotation Zrotation
					JOINT LeftArm
					{
						OFFSET 18.980635 5.765305 1.818600
						CHANNELS 3 Xrotation Yrotation Zrotation
						JOINT LeftForeArm
						{
							OFFSET 49.290169 0.000000 0.000000
							CHANNELS 3 Xrotation Yrotation Zrotation
							JOINT LeftHand
							{
								OFFSET 31.562012 0.000000 0.000000
								CHANNELS 3 Xrotation Yrotation Zrotation
								JOINT LeftHandThumb1
								{
									OFFSET 6.133995 -4.388519 7.076070
									CHANNELS 3 Xrotation Yrotation Zrotation
									JOINT LeftHandThumb2
									{
										OFFSET 6.037666 -3.485840 3.485847
										CHANNELS 3 Xrotation Yrotation Zrotation
										JOINT LeftHandThumb3
										{
											OFFSET 6.496506 -3.750763 3.750761
											CHANNELS 3 Xrotation Yrotation Zrotation
											JOINT LeftHandThumb4
											{
												OFFSET 5.616882 -3.242905 3.242910
												CHANNELS 3 Xrotation Yrotation Zrotation
												End Site
												{
													OFFSET -1.254608 7.132141 0.375429
												}
											}
										}
									}
								}
								JOINT LeftHandPinky1
								{
									OFFSET 18.920792 -0.453171 -11.426712
									CHANNELS 3 Xrotation Yrotation Zrotation
									JOINT LeftHandPinky2
									{
										OFFSET 4.919586 0.000000 0.000000
										CHANNELS 3 Xrotation Yrotation Zrotation
										JOINT LeftHandPinky3
										{
											OFFSET 5.233047 0.000000 0.000000
											CHANNELS 3 Xrotation Yrotation Zrotation
											JOINT LeftHandPinky4
											{
												OFFSET 5.571716 0.000000 0.000000
												CHANNELS 3 Xrotation Yrotation Zrotation
												End Site
												{
													OFFSET -3.459808 4.342407 -0.466164
												}
											}
										}
									}
								}
								JOINT LeftHandRing1
								{
									OFFSET 22.726120 -0.094986 -6.500475
									CHANNELS 3 Xrotation Yrotation Zrotation
									JOINT LeftHandRing2
									{
										OFFSET 6.408615 0.000000 0.000000
										CHANNELS 3 Xrotation Yrotation Zrotation
										JOINT LeftHandRing3
										{
											OFFSET 6.150223 0.000000 0.000000
											CHANNELS 3 Xrotation Yrotation Zrotation
											JOINT LeftHandRing4
											{
												OFFSET 6.145386 0.000000 0.000000
												CHANNELS 3 Xrotation Yrotation Zrotation
												End Site
												{
													OFFSET -3.671402 4.923981 -0.202372
												}
											}
										}
									}
								}
								JOINT LeftHandMiddle1
								{
									OFFSET 23.373947 0.000000 0.000001
									CHANNELS 3 Xrotation Yrotation Zrotation
									JOINT LeftHandMiddle2
									{
										OFFSET 6.996567 0.000000 0.000000
										CHANNELS 3 Xrotation Yrotation Zrotation
										JOINT LeftHandMiddle3
										{
											OFFSET 7.015945 0.000000 0.000000
											CHANNELS 3 Xrotation Yrotation Zrotation
											JOINT LeftHandMiddle4
											{
												OFFSET 7.721573 0.000000 0.000000
												CHANNELS 3 Xrotation Yrotation Zrotation
												End Site
												{
													OFFSET -4.651108 6.158463 0.251582
												}
											}
										}
									}
								}
								JOINT LeftHandIndex1
								{
									OFFSET 21.310577 -0.490082 6.209344
									CHANNELS 3 Xrotation Yrotation Zrotation
									JOINT LeftHandIndex2
									{
										OFFSET 7.536453 0.000000 0.000000
										CHANNELS 3 Xrotation Yrotation Zrotation
										JOINT LeftHandIndex3
										{
											OFFSET 7.512344 0.000000 0.000000
											CHANNELS 3 Xrotation Yrotation Zrotation
											JOINT LeftHandIndex4
											{
												OFFSET 10.212402 0.000000 0.000001
												CHANNELS 3 Xrotation Yrotation Zrotation
												End Site
												{
													OFFSET -5.180801 8.690506 1.388433
												}
											}
										}
									}
								}
							}
						}
					}
				}
				JOINT RightShoulder
				{
					OFFSET -17.399500 24.608795 1.168800
					CHANNELS 3 Xrotation Yrotation Zrotation
					JOINT RightArm
					{
						OFFSET -18.980635 5.765305 1.818600
						CHANNELS 3 Xrotation Yrotation Zrotation
						JOINT RightForeArm
						{
							OFFSET -49.290169 0.000000 0.000000
							CHANNELS 3 Xrotation Yrotation Zrotation
							JOINT RightHand
							{
								OFFSET -31.562012 0.000000 0.000000
								CHANNELS 3 Xrotation Yrotation Zrotation
								JOINT RightHandThumb1
								{
									OFFSET -6.133995 -4.388519 7.076070
									CHANNELS 3 Xrotation Yrotation Zrotation
									JOINT RightHandThumb2
									{
										OFFSET -6.037666 -3.485840 3.485847
										CHANNELS 3 Xrotation Yrotation Zrotation
										JOINT RightHandThumb3
										{
											OFFSET -6.496506 -3.750763 3.750761
											CHANNELS 3 Xrotation Yrotation Zrotation
											JOINT RightHandThumb4
											{
												OFFSET -5.616882 -3.242905 3.242910
												CHANNELS 3 Xrotation Yrotation Zrotation
												End Site
												{
													OFFSET 1.254608 7.132141 0.375429
												}
											}
										}
									}
								}
								JOINT RightHandIndex1
								{
									OFFSET -21.310577 -0.490082 6.209344
									CHANNELS 3 Xrotation Yrotation Zrotation
									JOINT RightHandIndex2
									{
										OFFSET -7.536453 0.000000 0.000000
										CHANNELS 3 Xrotation Yrotation Zrotation
										JOINT RightHandIndex3
										{
											OFFSET -7.512344 0.000000 0.000000
											CHANNELS 3 Xrotation Yrotation Zrotation
											JOINT RightHandIndex4
											{
												OFFSET -10.212402 0.000000 0.000001
												CHANNELS 3 Xrotation Yrotation Zrotation
												End Site
												{
													OFFSET 5.180801 8.690506 1.388433
												}
											}
										}
									}
								}
								JOINT RightHandMiddle1
								{
									OFFSET -23.373947 0.000000 0.000001
									CHANNELS 3 Xrotation Yrotation Zrotation
									JOINT RightHandMiddle2
									{
										OFFSET -6.996567 0.000000 0.000000
										CHANNELS 3 Xrotation Yrotation Zrotation
										JOINT RightHandMiddle3
										{
											OFFSET -7.015945 0.000000 0.000000
											CHANNELS 3 Xrotation Yrotation Zrotation
											JOINT RightHandMiddle4
											{
												OFFSET -7.721573 0.000000 0.000000
												CHANNELS 3 Xrotation Yrotation Zrotation
												End Site
												{
													OFFSET 4.651108 6.158463 0.251582
												}
											}
										}
									}
								}
								JOINT RightHandRing1
								{
									OFFSET -22.726120 -0.094986 -6.500475
									CHANNELS 3 Xrotation Yrotation Zrotation
									JOINT RightHandRing2
									{
										OFFSET -6.408615 0.000000 0.000000
										CHANNELS 3 Xrotation Yrotation Zrotation
										JOINT RightHandRing3
										{
											OFFSET -6.150223 0.000000 0.000000
											CHANNELS 3 Xrotation Yrotation Zrotation
											JOINT RightHandRing4
											{
												OFFSET -6.145386 0.000000 0.000000
												CHANNELS 3 Xrotation Yrotation Zrotation
												End Site
												{
													OFFSET 3.671402 4.923981 -0.202372
												}
											}
										}
									}
								}
								JOINT RightHandPinky1
								{
									OFFSET -18.920792 -0.453171 -11.426712
									CHANNELS 3 Xrotation Yrotation Zrotation
									JOINT RightHandPinky2
									{
										OFFSET -4.919586 0.000000 0.000000
										CHANNELS 3 Xrotation Yrotation Zrotation
										JOINT RightHandPinky3
										{
											OFFSET -5.233047 0.000000 0.000000
											CHANNELS 3 Xrotation Yrotation Zrotation
											JOINT RightHandPinky4
											{
												OFFSET -5.571716 0.000000 0.000000
												CHANNELS 3 Xrotation Yrotation Zrotation
												End Site
												{
													OFFSET 3.459808 4.342407 -0.466164
												}
											}
										}
									}
								}
							}
						}
					}
				}
			}
		}
	}
	JOINT LeftUpLeg
	{
		OFFSET 19.899099 -7.885101 -3.429500
		CHANNELS 3 Xrotation Yrotation Zrotation
		JOINT LeftLeg
		{
			OFFSET 1.745560 -36.997807 10.304700
			CHANNELS 3 Xrotation Yrotation Zrotation
			JOINT LeftFoot
			{
				OFFSET -1.745558 -29.803308 -13.615400
				CHANNELS 3 Xrotation Yrotation Zrotation
				JOINT LeftToeBase
				{
					OFFSET 1.181900 -18.539904 15.226099
					CHANNELS 3 Xrotation Yrotation Zrotation
					JOINT LeftToe_End
					{
						OFFSET -0.863701 1.402801 16.534700
						CHANNELS 3 Xrotation Yrotation Zrotation
						End Site
						{
							OFFSET 0.000000 16.616566 0.000000
						}
					}
				}
			}
		}
	}
	JOINT RightUpLeg
	{
		OFFSET -19.899099 -7.885101 -3.429500
		CHANNELS 3 Xrotation Yrotation Zrotation
		JOINT RightLeg
		{
			OFFSET -1.745560 -36.997807 10.304700
			CHANNELS 3 Xrotation Yrotation Zrotation
			JOINT RightFoot
			{
				OFFSET 1.745558 -29.803308 -13.615400
				CHANNELS 3 Xrotation Yrotation Zrotation
				JOINT RightToeBase
				{
					OFFSET -1.181900 -18.539904 15.226099
					CHANNELS 3 Xrotation Yrotation Zrotation
					JOINT RightToe_End
					{
						OFFSET 0.863701 1.402801 16.534700
						CHANNELS 3 Xrotation Yrotation Zrotation
						End Site
						{
							OFFSET 0.000000 16.616566 0.000000
						}
					}
				}
			}
		}
	}
}
MOTION
Frames: 5
Frame Time: 0.033333
5.851200 85.580467 -9.694546 3.299728 48.569772 -9.857174 10.597494 2.142114 -0.723205 1.102307 6.690328 0.052671 -10.856073 7.921506 1.480091 -4.160641 10.264804 1.269017 6.594476 11.568381 3.311171 -0.000001 -0.000000 -0.000000 -1.443686 0.216048 -3.633187 -3.489315 -2.054445 -74.647506 -0.344489 -15.787204 -2.247001 2.221536 -0.160501 -2.370716 12.460118 -3.051262 17.559516 2.315240 16.294793 -9.045448 3.565070 5.860282 -0.687810 0.000004 -0.000000 -0.000002 0.199981 0.922130 -23.123768 -0.822363 -1.496787 -32.530586 -1.939416 -1.476842 -40.315523 -0.000000 0.000001 -0.000004 0.849851 -1.106073 -21.323224 -0.919981 -1.746768 -37.449815 -0.790481 -1.696931 -34.940543 -0.000003 -0.000001 0.000005 1.072222 -0.580078 -17.406411 -0.104748 -1.563516 -30.057487 -0.039193 -1.704400 -32.251187 0.000002 -0.000001 0.000004 5.923447 -3.412900 -4.300476 0.010947 -0.956068 -21.171425 -0.080800 -0.831633 -17.489177 0.000001 0.000003 0.000001 -1.292357 1.899498 5.732897 1.535838 5.486557 65.577036 1.600188 21.241443 0.092393 2.537290 0.762549 -1.624665 12.991843 2.466677 -17.344628 1.929197 -15.745082 8.960821 3.798619 -6.147687 0.695916 0.000000 0.000001 0.000004 6.646579 3.314529 4.364137 -0.006933 0.971478 21.647371 -0.089535 0.897469 18.692570 -0.000001 -0.000001 -0.000001 1.195180 0.421197 18.039834 -0.109900 1.648319 31.667274 -0.044150 1.809948 34.011777 -0.000000 0.000000 -0.000004 0.924912 1.027048 21.750732 -1.027307 1.813139 39.556019 -0.899621 1.764733 37.117068 -0.000000 0.000000 -0.000002 0.141552 -1.128614 22.992247 -0.930491 1.543021 34.457905 -2.131629 1.484414 43.354366 0.000002 -0.000001 -0.000001 -21.259249 30.082629 22.660713 42.206239 4.439231 1.140637 -27.307305 11.635860 -9.622070 -3.075288 -2.348369 -2.454532 0.000000 0.000000 -0.000000 -6.420298 -30.662355 -19.119834 29.991156 -12.370641 -0.131976 -5.624805 0.719649 20.926308 -4.810646 -0.882713 6.758589 -0.000000 -0.000000 0.000000 
5.943723 85.985832 -9.804361 3.998791 49.870090 -10.792248 10.622210 2.030026 -0.513740 1.128576 6.619213 0.425875 -10.836870 7.861525 1.834209 -3.955246 9.700845 0.825468 6.123983 11.211068 3.222069 0.000000 0.000000 -0.000000 -1.489693 -0.030787 -3.309938 -4.014612 -2.487622 -75.152510 -0.993826 -16.696966 -2.499139 1.883076 0.106463 -2.387043 12.245926 -3.287569 17.643118 2.471136 16.515908 -9.080423 3.471128 5.744613 -0.684991 0.000004 0.000001 0.000001 0.223124 0.838978 -23.176563 -0.778857 -1.476284 -31.755025 -1.861482 -1.469172 -39.092618 0.000001 0.000002 -0.000002 0.820043 -1.138180 -21.150881 -0.881845 -1.724509 -36.601928 -0.747002 -1.667825 -34.064718 -0.000001 -0.000004 0.000007 1.023818 -0.644923 -17.151616 -0.100336 -1.524256 -29.409835 -0.038120 -1.662169 -31.542555 -0.000002 -0.000001 0.000006 5.632497 -3.452942 -4.275596 0.014112 -0.947865 -20.979782 -0.073842 -0.809818 -17.004477 0.000001 0.000001 0.000001 -1.259323 1.694967 5.831733 2.790015 3.783252 65.527988 0.979700 21.477207 -0.341427 2.612417 1.705960 -1.422508 12.359267 3.162477 -17.599103 2.388667 -16.398939 9.061904 3.520824 -5.805793 0.686464 0.000000 0.000001 -0.000001 5.786519 3.431202 4.288248 0.007471 0.949194 21.080894 -0.074398 0.827241 17.260231 -0.000002 -0.000003 -0.000001 1.049258 0.610969 17.286483 -0.099741 1.540002 29.752659 -0.038358 1.684138 31.917385 -0.000001 -0.000002 -0.000007 0.835858 1.121008 21.241185 -0.903719 1.738631 37.050324 -0.769948 1.683425 34.528276 0.000000 0.000002 0.000000 0.210594 -0.883074 23.148696 -0.801930 1.487376 32.165406 -1.902664 1.473597 39.739847 0.000001 -0.000001 -0.000001 -21.514317 28.206701 22.148360 41.673829 4.779427 1.155308 -26.559153 11.784999 -9.423343 -3.075307 -2.348361 -2.454517 -0.000000 -0.000000 -0.000000 -7.361889 -28.007730 -19.314411 28.358013 -9.756220 -0.040767 -7.024070 0.633461 20.191718 0.206429 -1.623502 6.418304 -0.000000 -0.000000 -0.000000 
5.973049 86.599716 -9.830072 4.766301 51.253347 -11.685407 10.642616 1.913593 -0.315255 1.147656 6.514663 0.762431 -10.823305 7.760610 2.144873 -3.588776 9.181868 0.235409 5.486549 10.672384 3.284767 -0.000000 -0.000000 0.000000 -1.533355 -0.256081 -2.984583 -4.464222 -2.783740 -75.554958 -1.657783 -17.577073 -2.685592 1.319101 0.397962 -2.109225 11.979763 -3.581782 17.744613 2.665260 16.790333 -9.124910 3.354438 5.600940 -0.681860 0.000002 0.000001 0.000000 0.251649 0.735687 -23.241988 -0.725499 -1.450345 -30.791835 -1.764399 -1.455931 -37.574049 -0.000001 0.000000 -0.000006 0.783325 -1.178265 -20.936895 -0.830925 -1.690390 -35.549229 -0.693739 -1.630771 -32.977164 -0.000003 -0.000003 0.000003 0.964570 -0.725994 -16.835265 -0.095597 -1.475600 -28.605609 -0.037498 -1.609783 -30.662580 -0.000003 -0.000003 0.000009 5.271227 -3.503093 -4.245387 0.018003 -0.937602 -20.741848 -0.065485 -0.782654 -16.402529 -0.000001 0.000001 0.000001 -1.236291 1.466052 5.855820 4.043602 2.195983 65.675691 0.744610 21.799397 -0.770430 2.732851 3.009838 -0.850023 11.725534 3.863301 -17.839068 2.850932 -17.052004 9.168107 3.243165 -5.463847 0.679259 -0.000000 0.000001 -0.000004 4.926560 3.550915 4.216821 0.021663 0.926720 20.514400 -0.061072 0.756782 15.827741 -0.000002 -0.000001 -0.000001 0.908881 0.804388 16.533497 -0.093644 1.432807 27.837840 -0.037879 1.560373 29.822706 0.000002 0.000003 -0.000004 0.748729 1.216616 20.731813 -0.782875 1.656682 34.544621 -0.643361 1.593974 31.939467 -0.000000 -0.000000 -0.000002 0.278281 -0.637131 23.304353 -0.674620 1.423948 29.872877 -1.671524 1.439398 36.125212 0.000002 0.000000 0.000001 -21.557832 26.394470 21.508947 40.515825 5.099841 1.161206 -25.342298 11.843902 -9.239859 -3.075303 -2.348348 -2.454520 0.000000 0.000000 -0.000000 -8.102332 -25.140502 -18.784012 26.530260 -7.377971 0.055009 -8.547573 0.173509 18.951586 3.342608 -2.382104 6.581841 -0.000001 -0.000000 0.000000 
5.967958 87.306198 -9.766884 5.682220 52.568667 -12.599296 10.638311 1.794593 -0.139393 1.118881 6.374110 1.060685 -10.855600 7.613485 2.409766 -3.149256 8.769365 -0.483318 4.806198 10.011066 3.512591 0.000000 -0.000000 -0.000000 -1.570750 -0.440008 -2.689156 -4.818632 -2.944476 -75.850507 -2.235640 -18.349228 -2.778298 0.571281 0.684487 -1.717915 11.671368 -3.923410 17.858853 2.890503 17.107802 -9.177426 3.219469 5.434631 -0.678742 0.000003 -0.000001 -0.000001 0.284340 0.615974 -23.317559 -0.663744 -1.418068 -29.676960 -1.651859 -1.435360 -35.816163 -0.000000 0.000001 -0.000000 0.741301 -1.225022 -20.689227 -0.772730 -1.649368 -34.330696 -0.632766 -1.585950 -31.718145 -0.000000 -0.000001 0.000003 0.897269 -0.820645 -16.469178 -0.093343 -1.423773 -27.674337 -0.038066 -1.549910 -29.643892 -0.000002 0.000000 0.000008 4.853019 -3.561799 -4.211444 0.022495 -0.925753 -20.466351 -0.059945 -0.749914 -15.705825 -0.000003 -0.000002 -0.000001 -1.233967 1.246298 5.762430 5.187182 0.836775 65.967142 1.015072 22.107796 -1.134856 2.858203 4.105763 0.205550 11.120744 4.535215 -18.053973 3.293872 -17.673318 9.274072 2.978885 -5.138089 0.674436 -0.000001 0.000001 0.000001 4.107680 3.667626 4.153051 0.035039 0.905174 19.974849 -0.050279 0.689622 14.463395 -0.000001 -0.000003 0.000001 0.780449 0.991811 15.816879 -0.091466 1.331902 26.013972 -0.042196 1.444556 27.827663 -0.000000 0.000000 -0.000008 0.667514 1.309097 20.246912 -0.670774 1.571883 32.158341 -0.526090 1.501285 29.474073 -0.000001 -0.000001 -0.000000 0.341568 -0.402580 23.451828 -0.554874 1.356180 27.689667 -1.451292 1.384884 32.682810 0.000001 -0.000000 0.000006 -21.452026 24.641255 20.783829 38.968282 5.446304 1.156856 -23.867562 11.917377 -9.125912 -3.075295 -2.348330 -2.454521 -0.000000 0.000000 -0.000000 -9.145006 -21.752045 -17.756573 25.019246 -5.572785 0.199073 -9.445555 -0.485230 17.403988 5.178005 -2.857642 7.064074 0.000001 -0.000002 -0.000000 
5.936374 87.997047 -9.596252 6.797345 53.822867 -13.606225 10.600057 1.656667 0.022989 1.024894 6.160621 1.323822 -10.949931 7.382274 2.624212 -2.753505 8.465582 -1.262594 4.221272 9.354481 3.881748 -0.000000 -0.000000 0.000000 -1.598291 -0.564340 -2.458125 -5.065201 -2.974815 -76.029281 -2.654511 -18.954535 -2.763095 -0.225919 0.936047 -1.433475 11.330460 -4.301900 17.980985 3.140071 17.458134 -9.236819 3.070436 5.250953 -0.675853 -0.000002 0.000001 -0.000001 0.320073 0.483756 -23.400744 -0.596172 -1.380442 -28.446078 -1.527567 -1.406212 -33.875423 -0.000000 0.000003 -0.000003 0.695389 -1.277060 -20.415804 -0.709279 -1.602001 -32.985330 -0.566397 -1.534202 -30.328205 -0.000001 -0.000000 0.000002 0.824487 -0.926088 -16.065034 -0.091855 -1.366762 -26.646093 -0.040213 -1.484495 -28.519081 -0.000000 0.000001 0.000006 4.391357 -3.627376 -4.175152 0.030115 -0.913617 -20.162172 -0.053935 -0.712937 -14.936545 -0.000000 0.000003 0.000001 -1.250656 1.067335 5.580851 6.094714 -0.186696 66.301555 1.593169 22.309121 -1.398711 2.895790 4.390569 0.782125 10.575183 5.143443 -18.235943 3.694870 -18.231824 9.373507 2.741191 -4.844848 0.671859 -0.000001 -0.000001 0.000002 3.370748 3.774885 4.099308 0.046869 0.885628 19.489270 -0.041926 0.628855 13.235498 -0.000001 0.000000 -0.000001 0.669308 1.163078 15.172164 -0.092546 1.242195 24.372461 -0.049917 1.342199 26.031977 0.000000 0.000002 -0.000001 0.595940 1.393632 19.810766 -0.572641 1.489969 30.010919 -0.423693 1.411773 27.255342 -0.000001 0.000001 -0.000003 0.397520 -0.191094 23.583912 -0.448646 1.289108 25.724808 -1.254482 1.317392 29.585009 -0.000004 -0.000001 -0.000003 -21.350864 22.905798 20.086738 37.304226 5.787474 1.143564 -22.304261 12.014457 -9.101137 -3.075288 -2.348378 -2.454529 -0.000000 0.000000 0.000000 -10.452325 -16.796815 -16.261463 23.747705 -4.918944 0.565900 -8.871586 -1.818101 16.109797 5.127190 -2.698865 6.953687 -0.000000 -0.000000 -0.000000 
